# xmcd
#
# Track frame offsets:
#	150
#	11682
#	25753
#	39036
#	53279
#	66329
#	81714
#	104143
#	118839
#	133203
#	144626
#	164789
#	184140
#	196334
#
# Disc length: 2834 seconds
#
# Revision: 0
# Processed by: cddbd v1.5.1PL0 Copyright (c) Steve Scherf et al.
# Submitted via: dBpowerAMP V4.0
#
DISCID=ce0b100e
DTITLE=Dean Brothers - Goldilocks And The Three Bears
DYEAR=1900
DGENRE=
TTITLE0=The Three Bears
TTITLE1=See You In My Dreams
TTITLE2=Sometimes She Will
TTITLE3=I Forgot To Remember
TTITLE4=Hank
TTITLE5=Hard Way
TTITLE6=Three Words
TTITLE7=You're The One
TTITLE8=Here Today
TTITLE9=No Future In The Past
TTITLE10=Cry Cry
TTITLE11=Honkytonk Angel
TTITLE12=Doctor
TTITLE13=Last Night
EXTD=
EXTT0=
EXTT1=
EXTT2=
EXTT3=
EXTT4=
EXTT5=
EXTT6=
EXTT7=
EXTT8=
EXTT9=
EXTT10=
EXTT11=
EXTT12=
EXTT13=
PLAYORDER=
